<?xml version="1.0" encoding="UTF-8"?>
<!DOCTYPE svg PUBLIC "-//W3C//DTD SVG 1.1//EN" "http://www.w3.org/Graphics/SVG/1.1/DTD/svg11.dtd">
<svg xmlns="http://www.w3.org/2000/svg" version="1.1" width="640px" height="640px" style="shape-rendering:geometricPrecision; text-rendering:geometricPrecision; image-rendering:optimizeQuality; fill-rule:evenodd; clip-rule:evenodd" xmlns:xlink="http://www.w3.org/1999/xlink">
<g><path style="opacity:1" fill="#fefefe" d="M -0.5,-0.5 C 212.833,-0.5 426.167,-0.5 639.5,-0.5C 639.5,212.833 639.5,426.167 639.5,639.5C 426.167,639.5 212.833,639.5 -0.5,639.5C -0.5,426.167 -0.5,212.833 -0.5,-0.5 Z"/></g>
<g><path style="opacity:1" fill="#151554" d="M 320.5,188.5 C 373.083,272.265 425.916,355.932 479,439.5C 483.235,446.973 484.569,454.973 483,463.5C 481.395,467.485 479.895,471.485 478.5,475.5C 471.743,485.229 462.409,490.896 450.5,492.5C 340.665,492.833 230.999,492.499 121.5,491.5C 154.156,440.195 186.823,388.862 219.5,337.5C 239.363,367.383 259.363,397.216 279.5,427C 289.703,433.538 300.37,434.204 311.5,429C 322.487,420.707 326.32,409.873 323,396.5C 299.485,359.656 275.985,322.823 252.5,286C 273.452,251.93 294.785,218.097 316.5,184.5C 317.84,185.867 319.173,187.2 320.5,188.5 Z"/></g>
<g><path style="opacity:1" fill="#f50908" d="M 518.5,435.5 C 518.625,441.203 518.292,446.87 517.5,452.5C 512.83,463.17 505.163,470.837 494.5,475.5C 493.571,474.311 493.238,472.978 493.5,471.5C 494.931,470.22 495.598,468.553 495.5,466.5C 497.039,463.135 497.706,459.469 497.5,455.5C 497.478,452.41 496.812,449.743 495.5,447.5C 494.536,441.897 492.702,436.563 490,431.5C 436.62,348.29 383.453,264.956 330.5,181.5C 329.191,178.222 327.358,175.222 325,172.5C 324.333,171.5 324.333,170.5 325,169.5C 329.846,162.463 334.679,155.463 339.5,148.5C 399.602,240.797 458.769,333.797 517,427.5C 517.822,430.117 518.322,432.784 518.5,435.5 Z"/></g>
<g><path style="opacity:1" fill="#db3730" d="M 225.5,269.5 C 217.777,267.596 210.444,268.262 203.5,271.5C 202.833,271.5 202.167,271.5 201.5,271.5C 203.121,269.883 205.121,268.716 207.5,268C 212.167,267.333 216.833,267.333 221.5,268C 223.058,268.21 224.391,268.71 225.5,269.5 Z"/></g>
<g><path style="opacity:1" fill="#f60305" d="M 225.5,269.5 C 233.352,272.018 239.019,277.018 242.5,284.5C 244.022,290.045 244.688,295.712 244.5,301.5C 242.136,315.198 234.136,323.198 220.5,325.5C 214.551,326.037 208.884,325.204 203.5,323C 202.167,322.333 202.167,321.667 203.5,321C 201.134,320.56 198.801,320.06 196.5,319.5C 192.564,316.386 189.898,312.386 188.5,307.5C 187.046,300.778 187.212,294.112 189,287.5C 189.333,287.167 189.667,286.833 190,286.5C 190.579,290.386 191.412,290.386 192.5,286.5C 191.098,285.158 191.431,284.324 193.5,284C 192.549,283.282 192.383,282.449 193,281.5C 194.667,280.167 196.333,280.167 198,281.5C 198.333,280.167 198.667,278.833 199,277.5C 201.257,275.954 203.424,274.288 205.5,272.5C 205.043,271.702 204.376,271.369 203.5,271.5C 210.444,268.262 217.777,267.596 225.5,269.5 Z"/></g>
<g><path style="opacity:1" fill="#ed2117" d="M 201.5,271.5 C 202.167,271.5 202.833,271.5 203.5,271.5C 204.376,271.369 205.043,271.702 205.5,272.5C 203.424,274.288 201.257,275.954 199,277.5C 198.667,278.833 198.333,280.167 198,281.5C 196.333,280.167 194.667,280.167 193,281.5C 192.383,282.449 192.549,283.282 193.5,284C 191.431,284.324 191.098,285.158 192.5,286.5C 191.412,290.386 190.579,290.386 190,286.5C 189.667,286.833 189.333,287.167 189,287.5C 187.212,294.112 187.046,300.778 188.5,307.5C 187.778,307.082 187.278,306.416 187,305.5C 185.092,295.742 186.759,286.742 192,278.5C 194.501,275.152 197.668,272.818 201.5,271.5 Z"/></g>
<g><path style="opacity:1" fill="#f06d67" d="M 242.5,284.5 C 245.448,289.935 246.114,295.601 244.5,301.5C 244.688,295.712 244.022,290.045 242.5,284.5 Z"/></g>
<g><path style="opacity:1" fill="#e83d32" d="M 196.5,319.5 C 198.801,320.06 201.134,320.56 203.5,321C 202.167,321.667 202.167,322.333 203.5,323C 208.884,325.204 214.551,326.037 220.5,325.5C 211.365,328.177 203.365,326.177 196.5,319.5 Z"/></g>
<g><path style="opacity:1" fill="#f8f8f7" d="M 330.5,181.5 C 383.453,264.956 436.62,348.29 490,431.5C 492.702,436.563 494.536,441.897 495.5,447.5C 496.768,453.828 496.768,460.161 495.5,466.5C 495.598,468.553 494.931,470.22 493.5,471.5C 493.592,467.929 491.926,466.762 488.5,468C 487.54,469.419 486.707,470.919 486,472.5C 485.517,471.552 485.351,470.552 485.5,469.5C 484.167,469.5 482.833,469.5 481.5,469.5C 483.297,472.738 482.297,474.738 478.5,475.5C 479.895,471.485 481.395,467.485 483,463.5C 484.569,454.973 483.235,446.973 479,439.5C 425.916,355.932 373.083,272.265 320.5,188.5C 321.873,188.343 323.207,188.51 324.5,189C 325.833,189.667 325.833,190.333 324.5,191C 325.167,191.667 325.833,191.667 326.5,191C 327.155,189.513 328.155,188.347 329.5,187.5C 330.466,185.604 330.799,183.604 330.5,181.5 Z"/></g>
<g><path style="opacity:1" fill="#de3e37" d="M 495.5,447.5 C 496.812,449.743 497.478,452.41 497.5,455.5C 497.706,459.469 497.039,463.135 495.5,466.5C 496.768,460.161 496.768,453.828 495.5,447.5 Z"/></g>
<g><path style="opacity:1" fill="#faa19e" d="M 518.5,435.5 C 519.163,437.641 519.497,439.975 519.5,442.5C 519.685,446.141 519.019,449.474 517.5,452.5C 518.292,446.87 518.625,441.203 518.5,435.5 Z"/></g>
<g><path style="opacity:1" fill="#615f8d" d="M 121.5,491.5 C 230.999,492.499 340.665,492.833 450.5,492.5C 340.666,493.832 230.666,493.832 120.5,492.5C 120.624,491.893 120.957,491.56 121.5,491.5 Z"/></g>
<g><path style="opacity:1" fill="#fafef0" d="M 120.5,482.5 C 121.209,481.596 122.209,481.263 123.5,481.5C 122.103,485.865 120.769,490.198 119.5,494.5C 231.5,494.333 343.5,494.5 455.5,495C 343.167,495.667 230.833,495.667 118.5,495C 117.903,493.938 117.57,492.772 117.5,491.5C 118.404,488.522 119.738,485.689 121.5,483C 121.272,482.601 120.938,482.435 120.5,482.5 Z"/></g>
</svg>
